<svg width="24" height="24" viewBox="0 0 24 24" fill="none" xmlns="http://www.w3.org/2000/svg">
  <path d="M4.5 3L9.5 12L4.5 21H7.5L12.5 12L7.5 3H4.5Z" fill="#4285F4"/>
  <path d="M19.5 12C19.5 16.1421 16.1421 19.5 12 19.5C10.6488 19.5 9.39723 19.0955 8.36177 18.4076L10.2679 14.5981C10.7359 15.0334 11.3388 15.3 12 15.3C13.8225 15.3 15.3 13.8225 15.3 12C15.3 10.1775 13.8225 8.7 12 8.7C11.3388 8.7 10.7359 8.96664 10.2679 9.40192L8.36177 5.59244C9.39723 4.90446 10.6488 4.5 12 4.5C16.1421 4.5 19.5 7.85786 19.5 12Z" fill="#34A853"/>
  <path d="M12 19.5C10.6488 19.5 9.39723 19.0955 8.36177 18.4076L10.2679 14.5981C10.7359 15.0334 11.3388 15.3 12 15.3V19.5Z" fill="#FBBC05"/>
  <path d="M12 4.5C10.6488 4.5 9.39723 4.90446 8.36177 5.59244L10.2679 9.40192C10.7359 8.96664 11.3388 8.7 12 8.7V4.5Z" fill="#EA4335"/>
</svg>